<!--?xml version="1.0" standalone="no"?-->
              <svg id="sw-js-blob-svg" viewBox="0 0 100 100" xmlns="http://www.w3.org/2000/svg" version="1.1">
                    <defs> 
                        <linearGradient id="sw-gradient" x1="0" x2="1" y1="1" y2="0">
                            <stop id="stop1" stop-color="rgba(255, 255, 255, 1)" offset="0%"></stop>
                            <stop id="stop2" stop-color="rgba(255, 255, 255, 1)" offset="100%"></stop>
                        </linearGradient>
                    </defs>
                <path fill="url(#sw-gradient)" d="M26.3,-30.9C31.3,-27.1,30.7,-16.2,30.9,-6.7C31.1,2.9,32.2,11,29.2,17.4C26.2,23.8,19.1,28.5,12.1,29.3C5.2,30.1,-1.8,27,-9.9,25C-18.1,23,-27.5,22.2,-33.5,16.9C-39.5,11.6,-42.1,1.9,-39.1,-5.5C-36.1,-12.8,-27.5,-17.7,-20.1,-21C-12.7,-24.3,-6.3,-25.9,2.2,-28.5C10.6,-31.1,21.3,-34.6,26.3,-30.9Z" width="100%" height="100%" transform="translate(50 50)" stroke-width="0" style="transition: all 0.3s ease 0s;" stroke="url(#sw-gradient)"></path>
              </svg>